<svg viewBox="0 0 5 8" xmlns="http://www.w3.org/2000/svg">
  <path fill-rule="evenodd" clip-rule="evenodd"
    d="M2.65261 1.29105C2.35637 1.24024 2.05171 1.29591 1.79258 1.4482C1.53345 1.60049 1.33658 1.83958 1.23684 2.12311C1.12021 2.45465 0.756902 2.62887 0.425364 2.51224C0.0938253 2.39562 -0.0803944 2.03231 0.0362333 1.70077C0.235715 1.1337 0.629453 0.655525 1.14771 0.350941C1.66597 0.0463568 2.2753 -0.064982 2.86778 0.0366442C3.46026 0.13827 3.99765 0.446303 4.38478 0.906185C4.77183 1.36597 4.98371 1.94788 4.9829 2.54888C4.98261 3.52275 4.26059 4.16587 3.74498 4.50961C3.46776 4.69442 3.19507 4.83031 2.99419 4.91959C2.89285 4.96463 2.80751 4.99881 2.74602 5.02224C2.71522 5.03397 2.69025 5.04307 2.67207 5.04953L2.64997 5.05727L2.64293 5.05967L2.64045 5.06051L2.63948 5.06084C2.63929 5.0609 2.63868 5.0611 2.43745 4.45739L2.63868 5.0611C2.30526 5.17224 1.94488 4.99205 1.83374 4.65863C1.72267 4.32543 1.90255 3.96531 2.23554 3.85391L2.23473 3.85418C2.2348 3.85416 2.23485 3.85415 2.23554 3.85391L2.2457 3.85035C2.25549 3.84687 2.27153 3.84104 2.29293 3.83289C2.33585 3.81654 2.39966 3.79106 2.47729 3.75656C2.63437 3.68675 2.83895 3.584 3.039 3.45064C3.47784 3.15808 3.71017 2.84684 3.71017 2.5483L3.71017 2.54736C3.71062 2.24679 3.60468 1.95576 3.41112 1.72582C3.21755 1.49588 2.94885 1.34187 2.65261 1.29105Z" />
  <path fill-rule="evenodd" clip-rule="evenodd"
    d="M2.48841 7.63921C2.83987 7.63921 3.12478 7.35431 3.12478 7.00285C3.12478 6.6514 2.83987 6.36649 2.48841 6.36649C2.13696 6.36649 1.85205 6.6514 1.85205 7.00285C1.85205 7.35431 2.13696 7.63921 2.48841 7.63921Z" />
</svg>
